Coordinates
version=1
nRows=22
nColumns=18
inDegrees=yes

Units are S.I. units (second, meters, Newtons, ...)
If the header above contains a line with 'inDegrees', this indicates whether rotational values are in degrees (yes) or radians (no).

endheader
time	ground_thorax_rot_x	ground_thorax_rot_y	ground_thorax_rot_z	ground_thorax_tx	ground_thorax_ty	ground_thorax_tz	clav_prot	clav_elev	scapula_abduction	scapula_elevation	scapula_upward_rot	scapula_winging	plane_elv	shoulder_elv	axial_rot	elbow_flexion	pro_sup
      2.08000000	     -1.24126397	      0.98690199	     -8.31532751	     -0.00458353	      0.00539360	     -0.00799207	    -25.86174168	     -1.64470739	     -3.57935601	     -7.00185839	     35.54851995	     -0.74046368	     59.74023536	     62.38541296	    -28.28643634	      0.00000000	     34.32000000
      2.09000000	     -1.30059471	      0.92421385	     -8.29728818	     -0.00472969	      0.00547977	     -0.00803007	    -25.91258396	     -1.48072844	     -3.40094670	     -6.94778094	     35.95512854	     -0.88298466	     59.69852835	     62.93579494	    -28.15598154	      0.00000000	     34.32000000
      2.10000000	     -1.27771411	      0.50682239	     -8.19468870	     -0.00473638	      0.00543786	     -0.00782199	    -25.77140713	     -0.99214431	     -2.91275294	     -6.65762638	     36.44094974	     -1.15193293	     59.83523304	     63.39523046	    -27.79398334	      0.00000000	     34.32000000
      2.11000000	     -1.39908933	      0.31210080	     -8.24624069	     -0.00469751	      0.00546110	     -0.00785428	    -25.87666351	     -0.88519732	     -2.86605373	     -6.63648595	     36.77688461	     -1.26010899	     59.96999780	     63.90374188	    -27.70743227	      0.00000000	     34.32000000
      2.12000000	     -1.62971488	      0.27917722	     -8.05994803	     -0.00488982	      0.00567519	     -0.00814416	    -25.96666782	     -0.85597392	     -2.85389983	     -6.65456271	     37.00627158	     -1.31845599	     59.96198555	     64.14740592	    -27.68779534	      0.00000000	     34.32000000
      2.13000000	     -1.53481761	      0.04874971	     -8.25634814	     -0.00463501	      0.00543646	     -0.00798880	    -26.03613830	     -0.52962776	     -2.71205931	     -6.48854020	     37.45847026	     -1.52684261	     60.30208941	     64.86502056	    -27.45711624	      0.00000000	     34.32000000
      2.14000000	     -1.62212773	      0.10097464	     -8.27104834	     -0.00465678	      0.00541604	     -0.00825140	    -26.12098711	     -0.44113473	     -2.65121386	     -6.47284270	     37.75862691	     -1.61916313	     60.21598881	     65.33913343	    -27.32169041	      0.00000000	     34.32000000
      2.15000000	     -1.66053609	      0.10252154	     -8.30846297	     -0.00461359	      0.00539209	     -0.00837876	    -26.20125315	     -0.37290728	     -2.61004689	     -6.46496943	     38.01552795	     -1.69575470	     60.13615613	     65.84988298	    -27.17062513	      0.00000000	     34.32000000
      2.16000000	     -1.72596238	      0.00025188	     -8.34087281	     -0.00460057	      0.00534933	     -0.00837300	    -26.27928854	     -0.27518548	     -2.54744251	     -6.43987371	     38.30477824	     -1.78856050	     60.14932882	     66.38031220	    -27.00604582	      0.00000000	     34.32000000
      2.17000000	     -1.82252256	     -0.23567499	     -8.35217852	     -0.00459092	      0.00538442	     -0.00831368	    -26.35266318	     -0.09358350	     -2.40927643	     -6.36950813	     38.70922248	     -1.93137684	     60.35032880	     66.91709751	    -26.85989947	      0.00000000	     34.32000000
      2.18000000	     -1.89588302	     -0.49853113	     -8.33225372	     -0.00460715	      0.00537883	     -0.00828999	    -26.41569730	      0.19945374	     -2.23088820	     -6.22654705	     39.17945594	     -2.12376675	     60.62071868	     67.38803545	    -26.69290705	      0.00000000	     34.32000000
      2.19000000	     -2.11695207	     -0.50088678	     -8.15987966	     -0.00472697	      0.00555307	     -0.00854504	    -26.49386033	      0.23025257	     -2.20204654	     -6.23901924	     39.40098606	     -2.17922537	     60.60831752	     67.61998362	    -26.66875341	      0.00000000	     34.32000000
      2.20000000	     -1.99267395	     -0.46226117	     -8.35276337	     -0.00459123	      0.00532417	     -0.00858627	    -26.55997175	      0.43779950	     -2.09906305	     -6.14049851	     39.75076442	     -2.31846917	     60.45573135	     68.23249764	    -26.42640282	      0.00000000	     34.32000000
      2.21000000	     -2.01108523	     -0.28479005	     -8.35333343	     -0.00459071	      0.00526364	     -0.00872605	    -26.61745914	      0.54551132	     -2.03026807	     -6.09988482	     40.00313162	     -2.40419282	     60.16657539	     68.65000801	    -26.26746366	      0.00000000	     34.32000000
      2.22000000	     -2.05110916	     -0.20521518	     -8.36057912	     -0.00457483	      0.00522429	     -0.00878611	    -26.67461153	      0.67450939	     -1.94395745	     -6.04738312	     40.28405717	     -2.50176824	     59.92993302	     69.12280201	    -26.07505027	      0.00000000	     34.32000000
      2.23000000	     -2.06725919	     -0.23063654	     -8.36009913	     -0.00463727	      0.00527100	     -0.00878147	    -26.74252826	      0.86405498	     -1.85509857	     -5.95792435	     40.61245387	     -2.62873438	     59.76759715	     69.62996857	    -25.92231610	      0.00000000	     34.32000000
      2.24000000	     -2.27792119	     -0.30035294	     -8.15667190	     -0.00481014	      0.00552250	     -0.00878896	    -26.84480367	      0.89233007	     -1.86698658	     -5.97199961	     40.83246243	     -2.68461977	     59.71878442	     69.85799572	    -25.90120336	      0.00000000	     34.32000000
      2.25000000	     -2.11156722	     -0.60246914	     -8.36843123	     -0.00471287	      0.00528536	     -0.00845883	    -26.87847752	      1.14219213	     -1.60831590	     -5.85617512	     41.32094790	     -2.85337933	     59.76115209	     70.57220167	    -25.77992815	      0.00000000	     34.32000000
      2.26000000	     -2.32972944	     -0.58443574	     -8.16396796	     -0.00491336	      0.00538179	     -0.00857994	    -26.95099502	      1.15191092	     -1.55250696	     -5.88242439	     41.55433615	     -2.90141768	     59.76226930	     70.80771547	    -25.76141448	      0.00000000	     34.32000000
      2.27000000	     -2.21304075	     -1.11479823	     -8.28868520	     -0.00470244	      0.00517889	     -0.00854436	    -26.61717920	      1.59081254	     -0.52264533	     -5.63381677	     42.27381530	     -3.12933669	     59.54341827	     71.33823504	    -25.08673426	      0.00000000	     34.32000000
      2.28000000	     -2.40899784	     -1.06444380	     -8.34032455	     -0.00464057	      0.00517216	     -0.00893696	    -26.72813308	      1.74261677	     -0.45968189	     -5.57641227	     42.64758215	     -3.24837143	     59.46320564	     71.89584658	    -24.96633950	      0.00000000	     34.32000000
      2.29000000	     -2.44408405	     -1.11278626	     -8.36542048	     -0.00456840	      0.00518091	     -0.00901547	    -26.84703489	      1.95409176	     -0.48757842	     -5.46768405	     42.94457165	     -3.37545779	     59.39086848	     72.44254968	    -24.86183229	      0.00000000	     34.32000000
